# File created by Blade
# Date/Time:  Tue Jan 27 20:07:51 2015
# Frame Rate: 120.000 fps
#------------------------------------------------------
:FULLY-SPECIFIED
:DEGREES
3076
root 5.092902 33.267694 -3.918529 15.429758 -18.966113 -17.930797
Spine -1.738349 14.593843 1.799739
Head 11.285120 -8.461287 11.492369
LeftShoulder -13.792521 -0.855678 30.011493
LeftArm -8.182542 -28.126669 -74.288008
LeftForeArm -36.666500 -0.000000 121.575349
LeftHand 11.068828 -0.000000 -33.663810
LeftHandThumb1 -26.253704 0.000000 33.147579
RightShoulder -14.945737 -10.916935 -20.003872
RightArm 18.450850 -27.775829 90.016734
RightForeArm -16.984471 -0.000000 16.728219
RightHand 17.628586 -0.000000 3.616715
RightHandThumb1 -24.326973 -0.000000 -32.862282
LeftUpLeg 0.126755 5.625043 7.774494
LeftLeg -5.777681 -0.000000 0.000000
LeftFoot -15.692731 14.907993 -14.782881
LeftToeBase 18.950452 -0.000000 -0.000000
RightUpLeg 25.068752 -35.228449 -45.394483
RightLeg 74.295043 -0.000000 -0.000000
RightFoot 26.115510 -30.452033 24.062430
RightToeBase 16.276234 -0.000000 -0.000000
3077
root 5.095878 33.263946 -3.910093 15.397434 -19.129810 -17.917360
Spine -1.675975 14.696325 1.741697
Head 11.410447 -8.430541 11.364099
LeftShoulder -13.832871 -0.905162 30.014348
LeftArm -8.284757 -28.163007 -74.223773
LeftForeArm -36.727556 0.000000 121.630915
LeftHand 11.034089 -0.000000 -33.706189
LeftHandThumb1 -26.253704 0.000000 33.147579
RightShoulder -14.928094 -10.964699 -20.028999
RightArm 18.423642 -27.586544 90.123547
RightForeArm -17.159290 0.000000 16.753593
RightHand 17.716597 -0.000000 3.887649
RightHandThumb1 -24.326973 -0.000000 -32.862282
LeftUpLeg 0.203428 5.718931 7.724571
LeftLeg -5.751726 -0.000000 0.000000
LeftFoot -15.836665 14.896317 -14.974914
LeftToeBase 19.279027 -0.000000 -0.000000
RightUpLeg 25.080359 -35.689303 -45.305290
RightLeg 73.939681 -0.000000 -0.000000
RightFoot 26.094428 -30.427048 24.157762
RightToeBase 16.790665 -0.000000 -0.000000
3078
root 5.099972 33.258217 -3.900268 15.349389 -19.280710 -17.895311
Spine -1.608616 14.798514 1.687727
Head 11.518253 -8.434415 11.254785
LeftShoulder -13.877165 -0.854220 29.997679
LeftArm -8.241983 -28.212768 -74.237004
LeftForeArm -36.812740 -0.000000 121.663172
LeftHand 11.014654 -0.000000 -33.767911
LeftHandThumb1 -26.253704 0.000000 33.147579
RightShoulder -14.915318 -10.987073 -20.071319
RightArm 18.391835 -27.609457 90.152123
RightForeArm -17.220741 -0.000000 16.786935
RightHand 17.757939 0.000000 3.895609
RightHandThumb1 -24.326973 -0.000000 -32.862282
LeftUpLeg 0.294912 5.803867 7.657627
LeftLeg -5.740252 -0.000000 0.000000
LeftFoot -15.779121 14.959925 -14.781704
LeftToeBase 18.983236 -0.000000 -0.000000
RightUpLeg 25.116734 -36.123806 -45.250420
RightLeg 73.571361 -0.000000 -0.000000
RightFoot 26.242855 -30.431616 24.171176
RightToeBase 16.520657 -0.000000 -0.000000
3079
root 5.104639 33.252177 -3.892374 15.316035 -19.441751 -17.865867
Spine -1.560660 14.924191 1.612298
Head 11.634310 -8.412846 11.173710
LeftShoulder -13.900745 -0.830961 30.002856
LeftArm -8.246653 -28.268728 -74.233167
LeftForeArm -36.899255 -0.000000 121.691375
LeftHand 11.021526 -0.000000 -33.841528
LeftHandThumb1 -26.253704 0.000000 33.147579
RightShoulder -14.896101 -11.033589 -20.102224
RightArm 18.398939 -27.681143 90.131420
RightForeArm -17.156143 -0.000000 16.806581
RightHand 17.739738 -0.000000 3.895145
RightHandThumb1 -24.326973 -0.000000 -32.862282
LeftUpLeg 0.357877 5.870945 7.582638
LeftLeg -5.707767 -0.000000 0.000000
LeftFoot -15.829692 15.017289 -14.772839
LeftToeBase 18.903319 -0.000000 -0.000000
RightUpLeg 25.089333 -36.494270 -45.110885
RightLeg 73.273555 -0.000000 -0.000000
RightFoot 26.347323 -30.173054 23.986231
RightToeBase 16.194460 -0.000000 -0.000000
